<svg xmlns="http://www.w3.org/2000/svg" version="1.1" xmlns:xlink="http://www.w3.org/1999/xlink" xmlns:svgjs="http://svgjs.dev/svgjs" width="1680" height="900" preserveAspectRatio="none" viewBox="0 0 1680 900"><g mask="url(&quot;#SvgjsMask1028&quot;)" fill="none"><rect width="1680" height="900" x="0" y="0" fill="#0e2a47"></rect><path d="M59.942,178.47C102.299,179.511,144.022,157.302,162.709,119.275C179.793,84.51,162.902,45.12,141.261,12.993C122.586,-14.731,93.329,-31.659,59.942,-33.284C23.05,-35.08,-16.463,-26.778,-36.349,4.348C-57.526,37.495,-53.464,80.007,-34.429,114.428C-14.71,150.085,19.208,177.469,59.942,178.47" fill="rgba(28, 83, 142, 0.4)" class="triangle-float1"></path><path d="M176.04,391.288C254.824,391.35,332.172,357.154,371.275,288.759C410.123,220.81,399.121,137.622,359.736,69.983C320.63,2.823,253.749,-47.558,176.04,-46.531C99.843,-45.524,38.856,8.845,0.563,74.729C-37.962,141.01,-55.828,221.4,-18.66,288.451C19.479,357.253,97.374,391.226,176.04,391.288" fill="rgba(28, 83, 142, 0.4)" class="triangle-float2"></path><path d="M184.273,376.047C256.013,379.54,330.19,351.449,365.423,288.86C400.135,227.197,380.054,152.945,344.209,91.934C308.934,31.895,253.906,-18.968,184.273,-19.469C113.916,-19.976,52.942,27.274,20.297,89.601C-10.092,147.619,-1.241,215.753,31.297,272.594C64.075,329.853,118.374,372.839,184.273,376.047" fill="rgba(28, 83, 142, 0.4)" class="triangle-float1"></path><path d="M1382.5035595559323 45.89527006044044L1529.5560990099896 272.33632340570495 1755.997152355254 125.28378395164764 1608.9446129011967-101.15726939361686z" fill="rgba(28, 83, 142, 0.4)" class="triangle-float3"></path><path d="M1673.6864251179709 228.19038407564477L1782.0131292853396 84.43599226713201 1512.218189488886-6.17686807966453z" fill="rgba(28, 83, 142, 0.4)" class="triangle-float1"></path><path d="M1674.3,406.783C1748.431,400.41,1787.556,325.468,1821.086,259.047C1850.284,201.207,1870.826,135.624,1839.932,78.672C1807.802,19.441,1741.642,-13.924,1674.3,-11.55C1610.701,-9.308,1562.787,36.565,1527.734,89.68C1487.275,150.986,1445.332,222.027,1476.15,288.702C1510.725,363.507,1592.194,413.842,1674.3,406.783" fill="rgba(28, 83, 142, 0.4)" class="triangle-float2"></path><path d="M172.88658917263132 1005.268567197405L274.03036939492756 754.9289264643724 23.690728661894923 653.785146242076-77.45305156040132 904.1247869751087z" fill="rgba(28, 83, 142, 0.4)" class="triangle-float2"></path><path d="M23.033,820.45C50.586,821.327,76.106,805.504,89.634,781.485C102.92,757.895,102.642,728.269,87.645,705.728C73.98,685.189,47.693,680.71,23.033,681.379C-0.183,682.009,-23.531,689.345,-35.779,709.078C-48.665,729.839,-48.018,755.859,-36.608,777.466C-24.343,800.692,-3.219,819.614,23.033,820.45" fill="rgba(28, 83, 142, 0.4)" class="triangle-float1"></path><path d="M62.212,895.195C99.497,895.421,124.801,861.387,142.581,828.613C159.332,797.735,168.75,761.264,151.458,730.686C133.944,699.716,97.79,686.75,62.212,686.497C26.116,686.24,-11.686,697.87,-29.264,729.398C-46.502,760.314,-33.589,796.657,-16.489,827.65C1.411,860.093,25.16,894.971,62.212,895.195" fill="rgba(28, 83, 142, 0.4)" class="triangle-float2"></path><path d="M1582.5966987664992 1022.0028092522505L1780.062198203675 837.8632520353758 1595.9226409868004 640.3977525981998 1398.4571415496246 824.5373098150745z" fill="rgba(28, 83, 142, 0.4)" class="triangle-float1"></path><path d="M1752.5025661259106 946.355843301613L1728.9705155840427 677.3832748168418 1483.5299976411393 969.8878938434809z" fill="rgba(28, 83, 142, 0.4)" class="triangle-float3"></path><path d="M1566.961524227066 650.0961894323342L1411.0769515458674 740.0961894323342 1624.0192378864667 928.9230484541326z" fill="rgba(28, 83, 142, 0.4)" class="triangle-float1"></path></g><defs><mask id="SvgjsMask1028"><rect width="1680" height="900" fill="#ffffff"></rect></mask><style>
                @keyframes float1 {
                    0%{transform: translate(0, 0)}
                    50%{transform: translate(-10px, 0)}
                    100%{transform: translate(0, 0)}
                }

                .triangle-float1 {
                    animation: float1 5s infinite;
                }

                @keyframes float2 {
                    0%{transform: translate(0, 0)}
                    50%{transform: translate(-5px, -5px)}
                    100%{transform: translate(0, 0)}
                }

                .triangle-float2 {
                    animation: float2 4s infinite;
                }

                @keyframes float3 {
                    0%{transform: translate(0, 0)}
                    50%{transform: translate(0, -10px)}
                    100%{transform: translate(0, 0)}
                }

                .triangle-float3 {
                    animation: float3 6s infinite;
                }
            </style></defs></svg>